<mxfile host="Electron" modified="2023-09-28T07:52:04.736Z" agent="Mozilla/5.0 (Windows NT 10.0; Win64; x64) AppleWebKit/537.36 (KHTML, like Gecko) draw.io/21.8.2 Chrome/114.0.5735.289 Electron/25.8.1 Safari/537.36" etag="Xr3XvV35I4X-GrPlGWwp" version="21.8.2" type="device">
  <diagram name="Page-1" id="zo89BvUCp7OJQK9A_-py">
    <mxGraphModel dx="1714" dy="1616" grid="1" gridSize="10" guides="1" tooltips="1" connect="1" arrows="1" fold="1" page="1" pageScale="1" pageWidth="850" pageHeight="1100" math="0" shadow="0">
      <root>
        <mxCell id="0" />
        <mxCell id="1" parent="0" />
        <mxCell id="-LVYRruvtGEwxxt-nKAD-1" value="CONTRACTOR" style="rounded=0;whiteSpace=wrap;html=1;" parent="1" vertex="1">
          <mxGeometry x="-380" y="535" width="120" height="60" as="geometry" />
        </mxCell>
        <mxCell id="-LVYRruvtGEwxxt-nKAD-2" value="" style="endArrow=classic;html=1;rounded=0;" parent="1" edge="1">
          <mxGeometry width="50" height="50" relative="1" as="geometry">
            <mxPoint x="-160" y="340" as="sourcePoint" />
            <mxPoint x="350" y="340" as="targetPoint" />
          </mxGeometry>
        </mxCell>
        <mxCell id="-LVYRruvtGEwxxt-nKAD-3" value="" style="endArrow=classic;html=1;rounded=0;entryX=0.54;entryY=0.024;entryDx=0;entryDy=0;entryPerimeter=0;" parent="1" edge="1">
          <mxGeometry width="50" height="50" relative="1" as="geometry">
            <mxPoint x="350" y="349" as="sourcePoint" />
            <mxPoint x="-158.4000000000001" y="351.03999999999996" as="targetPoint" />
          </mxGeometry>
        </mxCell>
        <mxCell id="-LVYRruvtGEwxxt-nKAD-4" value="Request" style="text;html=1;strokeColor=none;fillColor=none;align=center;verticalAlign=middle;whiteSpace=wrap;rounded=0;" parent="1" vertex="1">
          <mxGeometry x="60" y="310" width="60" height="30" as="geometry" />
        </mxCell>
        <mxCell id="-LVYRruvtGEwxxt-nKAD-5" value="Response" style="text;html=1;strokeColor=none;fillColor=none;align=center;verticalAlign=middle;whiteSpace=wrap;rounded=0;" parent="1" vertex="1">
          <mxGeometry x="60" y="350" width="60" height="30" as="geometry" />
        </mxCell>
        <mxCell id="-LVYRruvtGEwxxt-nKAD-6" value="" style="ellipse;whiteSpace=wrap;html=1;aspect=fixed;" parent="1" vertex="1">
          <mxGeometry x="350" y="285" width="110" height="110" as="geometry" />
        </mxCell>
        <mxCell id="-LVYRruvtGEwxxt-nKAD-7" value="" style="endArrow=none;html=1;rounded=0;entryX=1;entryY=0.5;entryDx=0;entryDy=0;" parent="1" target="-LVYRruvtGEwxxt-nKAD-6" edge="1">
          <mxGeometry width="50" height="50" relative="1" as="geometry">
            <mxPoint x="350" y="340" as="sourcePoint" />
            <mxPoint x="400" y="290" as="targetPoint" />
          </mxGeometry>
        </mxCell>
        <mxCell id="-LVYRruvtGEwxxt-nKAD-8" value="2.4.1" style="text;html=1;strokeColor=none;fillColor=none;align=center;verticalAlign=middle;whiteSpace=wrap;rounded=0;" parent="1" vertex="1">
          <mxGeometry x="375" y="300" width="60" height="30" as="geometry" />
        </mxCell>
        <mxCell id="-LVYRruvtGEwxxt-nKAD-9" value="View" style="text;html=1;strokeColor=none;fillColor=none;align=center;verticalAlign=middle;whiteSpace=wrap;rounded=0;" parent="1" vertex="1">
          <mxGeometry x="362.5" y="350" width="85" height="30" as="geometry" />
        </mxCell>
        <mxCell id="-LVYRruvtGEwxxt-nKAD-14" value="" style="endArrow=classic;html=1;rounded=0;exitX=0;exitY=0.75;exitDx=0;exitDy=0;entryX=1;entryY=0.75;entryDx=0;entryDy=0;" parent="1" source="-LVYRruvtGEwxxt-nKAD-47" target="-LVYRruvtGEwxxt-nKAD-47" edge="1">
          <mxGeometry width="50" height="50" relative="1" as="geometry">
            <mxPoint x="464" y="308" as="sourcePoint" />
            <mxPoint x="765" y="308" as="targetPoint" />
          </mxGeometry>
        </mxCell>
        <mxCell id="-LVYRruvtGEwxxt-nKAD-15" value="" style="endArrow=classic;html=1;rounded=0;entryX=0;entryY=1;entryDx=0;entryDy=0;" parent="1" target="-LVYRruvtGEwxxt-nKAD-47" edge="1">
          <mxGeometry width="50" height="50" relative="1" as="geometry">
            <mxPoint x="760" y="294" as="sourcePoint" />
            <mxPoint x="459" y="319" as="targetPoint" />
          </mxGeometry>
        </mxCell>
        <mxCell id="-LVYRruvtGEwxxt-nKAD-16" value="" style="html=1;dashed=0;whiteSpace=wrap;shape=mxgraph.dfd.dataStoreID;align=left;spacingLeft=3;points=[[0,0],[0.5,0],[1,0],[0,0.5],[1,0.5],[0,1],[0.5,1],[1,1]];" parent="1" vertex="1">
          <mxGeometry x="765" y="268" width="190" height="40" as="geometry" />
        </mxCell>
        <mxCell id="-LVYRruvtGEwxxt-nKAD-17" value="contractor_booking" style="text;html=1;strokeColor=none;fillColor=none;align=center;verticalAlign=middle;whiteSpace=wrap;rounded=0;" parent="1" vertex="1">
          <mxGeometry x="845" y="273" width="60" height="30" as="geometry" />
        </mxCell>
        <mxCell id="-LVYRruvtGEwxxt-nKAD-18" value="" style="endArrow=classic;html=1;rounded=0;exitX=0;exitY=0.75;exitDx=0;exitDy=0;" parent="1" source="-LVYRruvtGEwxxt-nKAD-50" edge="1">
          <mxGeometry width="50" height="50" relative="1" as="geometry">
            <mxPoint x="458" y="359" as="sourcePoint" />
            <mxPoint x="760" y="393" as="targetPoint" />
          </mxGeometry>
        </mxCell>
        <mxCell id="-LVYRruvtGEwxxt-nKAD-19" value="" style="endArrow=classic;html=1;rounded=0;" parent="1" edge="1">
          <mxGeometry width="50" height="50" relative="1" as="geometry">
            <mxPoint x="764" y="403" as="sourcePoint" />
            <mxPoint x="477" y="403" as="targetPoint" />
          </mxGeometry>
        </mxCell>
        <mxCell id="-LVYRruvtGEwxxt-nKAD-20" value="" style="html=1;dashed=0;whiteSpace=wrap;shape=mxgraph.dfd.dataStoreID;align=left;spacingLeft=3;points=[[0,0],[0.5,0],[1,0],[0,0.5],[1,0.5],[0,1],[0.5,1],[1,1]];" parent="1" vertex="1">
          <mxGeometry x="764" y="377" width="190" height="40" as="geometry" />
        </mxCell>
        <mxCell id="-LVYRruvtGEwxxt-nKAD-21" value="contractor_payment" style="text;html=1;strokeColor=none;fillColor=none;align=center;verticalAlign=middle;whiteSpace=wrap;rounded=0;" parent="1" vertex="1">
          <mxGeometry x="844" y="382" width="60" height="30" as="geometry" />
        </mxCell>
        <mxCell id="-LVYRruvtGEwxxt-nKAD-47" value="Request Customer Contractor Booking Details" style="text;html=1;strokeColor=none;fillColor=none;align=center;verticalAlign=middle;whiteSpace=wrap;rounded=0;" parent="1" vertex="1">
          <mxGeometry x="478" y="264" width="280" height="30" as="geometry" />
        </mxCell>
        <mxCell id="-LVYRruvtGEwxxt-nKAD-48" value="Response" style="text;html=1;strokeColor=none;fillColor=none;align=center;verticalAlign=middle;whiteSpace=wrap;rounded=0;" parent="1" vertex="1">
          <mxGeometry x="538" y="293" width="160" height="30" as="geometry" />
        </mxCell>
        <mxCell id="-LVYRruvtGEwxxt-nKAD-50" value="Request Customer Contractor Payment Details" style="text;html=1;strokeColor=none;fillColor=none;align=center;verticalAlign=middle;whiteSpace=wrap;rounded=0;" parent="1" vertex="1">
          <mxGeometry x="485.5" y="370" width="265" height="30" as="geometry" />
        </mxCell>
        <mxCell id="-LVYRruvtGEwxxt-nKAD-51" value="Response" style="text;html=1;strokeColor=none;fillColor=none;align=center;verticalAlign=middle;whiteSpace=wrap;rounded=0;" parent="1" vertex="1">
          <mxGeometry x="535" y="400" width="160" height="30" as="geometry" />
        </mxCell>
        <mxCell id="-LVYRruvtGEwxxt-nKAD-62" value="" style="shape=table;startSize=0;container=1;collapsible=0;childLayout=tableLayout;" parent="1" vertex="1">
          <mxGeometry x="-580" y="30" width="120" height="80" as="geometry" />
        </mxCell>
        <mxCell id="-LVYRruvtGEwxxt-nKAD-63" value="" style="shape=tableRow;horizontal=0;startSize=0;swimlaneHead=0;swimlaneBody=0;strokeColor=inherit;top=0;left=0;bottom=0;right=0;collapsible=0;dropTarget=0;fillColor=none;points=[[0,0.5],[1,0.5]];portConstraint=eastwest;" parent="-LVYRruvtGEwxxt-nKAD-62" vertex="1">
          <mxGeometry width="120" height="40" as="geometry" />
        </mxCell>
        <mxCell id="-LVYRruvtGEwxxt-nKAD-64" value="" style="shape=partialRectangle;html=1;whiteSpace=wrap;connectable=0;strokeColor=inherit;overflow=hidden;fillColor=none;top=0;left=0;bottom=0;right=0;pointerEvents=1;" parent="-LVYRruvtGEwxxt-nKAD-63" vertex="1">
          <mxGeometry width="60" height="40" as="geometry">
            <mxRectangle width="60" height="40" as="alternateBounds" />
          </mxGeometry>
        </mxCell>
        <mxCell id="-LVYRruvtGEwxxt-nKAD-65" value="" style="shape=partialRectangle;html=1;whiteSpace=wrap;connectable=0;strokeColor=inherit;overflow=hidden;fillColor=none;top=0;left=0;bottom=0;right=0;pointerEvents=1;" parent="-LVYRruvtGEwxxt-nKAD-63" vertex="1">
          <mxGeometry x="60" width="60" height="40" as="geometry">
            <mxRectangle width="60" height="40" as="alternateBounds" />
          </mxGeometry>
        </mxCell>
        <mxCell id="-LVYRruvtGEwxxt-nKAD-66" value="" style="shape=tableRow;horizontal=0;startSize=0;swimlaneHead=0;swimlaneBody=0;strokeColor=inherit;top=0;left=0;bottom=0;right=0;collapsible=0;dropTarget=0;fillColor=none;points=[[0,0.5],[1,0.5]];portConstraint=eastwest;" parent="-LVYRruvtGEwxxt-nKAD-62" vertex="1">
          <mxGeometry y="40" width="120" height="40" as="geometry" />
        </mxCell>
        <mxCell id="-LVYRruvtGEwxxt-nKAD-67" value="" style="shape=partialRectangle;html=1;whiteSpace=wrap;connectable=0;strokeColor=inherit;overflow=hidden;fillColor=none;top=0;left=0;bottom=0;right=0;pointerEvents=1;" parent="-LVYRruvtGEwxxt-nKAD-66" vertex="1">
          <mxGeometry width="60" height="40" as="geometry">
            <mxRectangle width="60" height="40" as="alternateBounds" />
          </mxGeometry>
        </mxCell>
        <mxCell id="-LVYRruvtGEwxxt-nKAD-68" value="" style="shape=partialRectangle;html=1;whiteSpace=wrap;connectable=0;strokeColor=inherit;overflow=hidden;fillColor=none;top=0;left=0;bottom=0;right=0;pointerEvents=1;" parent="-LVYRruvtGEwxxt-nKAD-66" vertex="1">
          <mxGeometry x="60" width="60" height="40" as="geometry">
            <mxRectangle width="60" height="40" as="alternateBounds" />
          </mxGeometry>
        </mxCell>
        <mxCell id="-LVYRruvtGEwxxt-nKAD-72" value="" style="endArrow=classic;html=1;rounded=0;exitX=0.475;exitY=0.972;exitDx=0;exitDy=0;exitPerimeter=0;" parent="1" edge="1">
          <mxGeometry width="50" height="50" relative="1" as="geometry">
            <mxPoint x="-161" y="787.1199999999999" as="sourcePoint" />
            <mxPoint x="350" y="787" as="targetPoint" />
          </mxGeometry>
        </mxCell>
        <mxCell id="-LVYRruvtGEwxxt-nKAD-73" value="" style="endArrow=classic;html=1;rounded=0;" parent="1" edge="1">
          <mxGeometry width="50" height="50" relative="1" as="geometry">
            <mxPoint x="350" y="798" as="sourcePoint" />
            <mxPoint x="-160" y="800" as="targetPoint" />
          </mxGeometry>
        </mxCell>
        <mxCell id="-LVYRruvtGEwxxt-nKAD-74" value="Request" style="text;html=1;strokeColor=none;fillColor=none;align=center;verticalAlign=middle;whiteSpace=wrap;rounded=0;" parent="1" vertex="1">
          <mxGeometry x="70" y="757" width="60" height="30" as="geometry" />
        </mxCell>
        <mxCell id="-LVYRruvtGEwxxt-nKAD-75" value="Response" style="text;html=1;strokeColor=none;fillColor=none;align=center;verticalAlign=middle;whiteSpace=wrap;rounded=0;" parent="1" vertex="1">
          <mxGeometry x="70" y="797" width="60" height="30" as="geometry" />
        </mxCell>
        <mxCell id="-LVYRruvtGEwxxt-nKAD-76" value="" style="ellipse;whiteSpace=wrap;html=1;aspect=fixed;" parent="1" vertex="1">
          <mxGeometry x="351" y="732" width="110" height="110" as="geometry" />
        </mxCell>
        <mxCell id="-LVYRruvtGEwxxt-nKAD-77" value="" style="endArrow=none;html=1;rounded=0;entryX=1;entryY=0.5;entryDx=0;entryDy=0;" parent="1" target="-LVYRruvtGEwxxt-nKAD-76" edge="1">
          <mxGeometry width="50" height="50" relative="1" as="geometry">
            <mxPoint x="351" y="787" as="sourcePoint" />
            <mxPoint x="401" y="737" as="targetPoint" />
          </mxGeometry>
        </mxCell>
        <mxCell id="-LVYRruvtGEwxxt-nKAD-78" value="2.4.3" style="text;html=1;strokeColor=none;fillColor=none;align=center;verticalAlign=middle;whiteSpace=wrap;rounded=0;" parent="1" vertex="1">
          <mxGeometry x="376" y="747" width="60" height="30" as="geometry" />
        </mxCell>
        <mxCell id="-LVYRruvtGEwxxt-nKAD-79" value="Add,Update" style="text;html=1;strokeColor=none;fillColor=none;align=center;verticalAlign=middle;whiteSpace=wrap;rounded=0;" parent="1" vertex="1">
          <mxGeometry x="363.5" y="797" width="85" height="30" as="geometry" />
        </mxCell>
        <mxCell id="-LVYRruvtGEwxxt-nKAD-84" value="" style="endArrow=classic;html=1;rounded=0;" parent="1" edge="1">
          <mxGeometry width="50" height="50" relative="1" as="geometry">
            <mxPoint x="480" y="730" as="sourcePoint" />
            <mxPoint x="789" y="733" as="targetPoint" />
          </mxGeometry>
        </mxCell>
        <mxCell id="-LVYRruvtGEwxxt-nKAD-85" value="" style="endArrow=classic;html=1;rounded=0;entryX=0.945;entryY=0.236;entryDx=0;entryDy=0;entryPerimeter=0;" parent="1" edge="1">
          <mxGeometry width="50" height="50" relative="1" as="geometry">
            <mxPoint x="789" y="744" as="sourcePoint" />
            <mxPoint x="483" y="744" as="targetPoint" />
          </mxGeometry>
        </mxCell>
        <mxCell id="-LVYRruvtGEwxxt-nKAD-86" value="" style="html=1;dashed=0;whiteSpace=wrap;shape=mxgraph.dfd.dataStoreID;align=left;spacingLeft=3;points=[[0,0],[0.5,0],[1,0],[0,0.5],[1,0.5],[0,1],[0.5,1],[1,1]];" parent="1" vertex="1">
          <mxGeometry x="792" y="713" width="190" height="40" as="geometry" />
        </mxCell>
        <mxCell id="-LVYRruvtGEwxxt-nKAD-87" value="contractor" style="text;html=1;strokeColor=none;fillColor=none;align=center;verticalAlign=middle;whiteSpace=wrap;rounded=0;" parent="1" vertex="1">
          <mxGeometry x="869" y="719" width="60" height="30" as="geometry" />
        </mxCell>
        <mxCell id="-LVYRruvtGEwxxt-nKAD-88" value="" style="endArrow=classic;html=1;rounded=0;" parent="1" edge="1">
          <mxGeometry width="50" height="50" relative="1" as="geometry">
            <mxPoint x="482" y="836.5" as="sourcePoint" />
            <mxPoint x="791" y="836.5" as="targetPoint" />
          </mxGeometry>
        </mxCell>
        <mxCell id="-LVYRruvtGEwxxt-nKAD-89" value="" style="endArrow=classic;html=1;rounded=0;entryX=0.945;entryY=0.236;entryDx=0;entryDy=0;entryPerimeter=0;" parent="1" edge="1">
          <mxGeometry width="50" height="50" relative="1" as="geometry">
            <mxPoint x="787" y="846" as="sourcePoint" />
            <mxPoint x="481" y="846" as="targetPoint" />
          </mxGeometry>
        </mxCell>
        <mxCell id="-LVYRruvtGEwxxt-nKAD-90" value="" style="html=1;dashed=0;whiteSpace=wrap;shape=mxgraph.dfd.dataStoreID;align=left;spacingLeft=3;points=[[0,0],[0.5,0],[1,0],[0,0.5],[1,0.5],[0,1],[0.5,1],[1,1]];" parent="1" vertex="1">
          <mxGeometry x="790" y="820" width="190" height="40" as="geometry" />
        </mxCell>
        <mxCell id="-LVYRruvtGEwxxt-nKAD-108" value="" style="line;strokeWidth=1;rotatable=0;dashed=0;labelPosition=right;align=left;verticalAlign=middle;spacingTop=0;spacingLeft=6;points=[];portConstraint=eastwest;" parent="1" vertex="1">
          <mxGeometry x="462" y="782" width="20" height="10" as="geometry" />
        </mxCell>
        <mxCell id="-LVYRruvtGEwxxt-nKAD-109" value="" style="endArrow=none;html=1;rounded=0;" parent="1" edge="1">
          <mxGeometry relative="1" as="geometry">
            <mxPoint x="480" y="850" as="sourcePoint" />
            <mxPoint x="480" y="730" as="targetPoint" />
          </mxGeometry>
        </mxCell>
        <mxCell id="-LVYRruvtGEwxxt-nKAD-112" value="Request" style="text;html=1;strokeColor=none;fillColor=none;align=center;verticalAlign=middle;whiteSpace=wrap;rounded=0;" parent="1" vertex="1">
          <mxGeometry x="502" y="710" width="280" height="30" as="geometry" />
        </mxCell>
        <mxCell id="-LVYRruvtGEwxxt-nKAD-113" value="updated contractor details" style="text;html=1;strokeColor=none;fillColor=none;align=center;verticalAlign=middle;whiteSpace=wrap;rounded=0;" parent="1" vertex="1">
          <mxGeometry x="562" y="739" width="160" height="30" as="geometry" />
        </mxCell>
        <mxCell id="-LVYRruvtGEwxxt-nKAD-114" value="Request" style="text;html=1;strokeColor=none;fillColor=none;align=center;verticalAlign=middle;whiteSpace=wrap;rounded=0;" parent="1" vertex="1">
          <mxGeometry x="498" y="812" width="280" height="30" as="geometry" />
        </mxCell>
        <mxCell id="-LVYRruvtGEwxxt-nKAD-115" value="upload&amp;nbsp; house budget details pdf" style="text;html=1;strokeColor=none;fillColor=none;align=center;verticalAlign=middle;whiteSpace=wrap;rounded=0;" parent="1" vertex="1">
          <mxGeometry x="558" y="844" width="202" height="30" as="geometry" />
        </mxCell>
        <mxCell id="-LVYRruvtGEwxxt-nKAD-125" value="" style="shape=table;startSize=0;container=1;collapsible=0;childLayout=tableLayout;" parent="1" vertex="1">
          <mxGeometry x="-550" y="1140" width="120" height="80" as="geometry" />
        </mxCell>
        <mxCell id="-LVYRruvtGEwxxt-nKAD-126" value="" style="shape=tableRow;horizontal=0;startSize=0;swimlaneHead=0;swimlaneBody=0;strokeColor=inherit;top=0;left=0;bottom=0;right=0;collapsible=0;dropTarget=0;fillColor=none;points=[[0,0.5],[1,0.5]];portConstraint=eastwest;" parent="-LVYRruvtGEwxxt-nKAD-125" vertex="1">
          <mxGeometry width="120" height="40" as="geometry" />
        </mxCell>
        <mxCell id="-LVYRruvtGEwxxt-nKAD-127" value="" style="shape=partialRectangle;html=1;whiteSpace=wrap;connectable=0;strokeColor=inherit;overflow=hidden;fillColor=none;top=0;left=0;bottom=0;right=0;pointerEvents=1;" parent="-LVYRruvtGEwxxt-nKAD-126" vertex="1">
          <mxGeometry width="60" height="40" as="geometry">
            <mxRectangle width="60" height="40" as="alternateBounds" />
          </mxGeometry>
        </mxCell>
        <mxCell id="-LVYRruvtGEwxxt-nKAD-128" value="" style="shape=partialRectangle;html=1;whiteSpace=wrap;connectable=0;strokeColor=inherit;overflow=hidden;fillColor=none;top=0;left=0;bottom=0;right=0;pointerEvents=1;" parent="-LVYRruvtGEwxxt-nKAD-126" vertex="1">
          <mxGeometry x="60" width="60" height="40" as="geometry">
            <mxRectangle width="60" height="40" as="alternateBounds" />
          </mxGeometry>
        </mxCell>
        <mxCell id="-LVYRruvtGEwxxt-nKAD-129" value="" style="shape=tableRow;horizontal=0;startSize=0;swimlaneHead=0;swimlaneBody=0;strokeColor=inherit;top=0;left=0;bottom=0;right=0;collapsible=0;dropTarget=0;fillColor=none;points=[[0,0.5],[1,0.5]];portConstraint=eastwest;" parent="-LVYRruvtGEwxxt-nKAD-125" vertex="1">
          <mxGeometry y="40" width="120" height="40" as="geometry" />
        </mxCell>
        <mxCell id="-LVYRruvtGEwxxt-nKAD-130" value="" style="shape=partialRectangle;html=1;whiteSpace=wrap;connectable=0;strokeColor=inherit;overflow=hidden;fillColor=none;top=0;left=0;bottom=0;right=0;pointerEvents=1;" parent="-LVYRruvtGEwxxt-nKAD-129" vertex="1">
          <mxGeometry width="60" height="40" as="geometry">
            <mxRectangle width="60" height="40" as="alternateBounds" />
          </mxGeometry>
        </mxCell>
        <mxCell id="-LVYRruvtGEwxxt-nKAD-131" value="" style="shape=partialRectangle;html=1;whiteSpace=wrap;connectable=0;strokeColor=inherit;overflow=hidden;fillColor=none;top=0;left=0;bottom=0;right=0;pointerEvents=1;" parent="-LVYRruvtGEwxxt-nKAD-129" vertex="1">
          <mxGeometry x="60" width="60" height="40" as="geometry">
            <mxRectangle width="60" height="40" as="alternateBounds" />
          </mxGeometry>
        </mxCell>
        <mxCell id="-LVYRruvtGEwxxt-nKAD-132" value="" style="shape=table;startSize=0;container=1;collapsible=0;childLayout=tableLayout;" parent="1" vertex="1">
          <mxGeometry x="1360" y="1220" width="120" height="80" as="geometry" />
        </mxCell>
        <mxCell id="-LVYRruvtGEwxxt-nKAD-133" value="" style="shape=tableRow;horizontal=0;startSize=0;swimlaneHead=0;swimlaneBody=0;strokeColor=inherit;top=0;left=0;bottom=0;right=0;collapsible=0;dropTarget=0;fillColor=none;points=[[0,0.5],[1,0.5]];portConstraint=eastwest;" parent="-LVYRruvtGEwxxt-nKAD-132" vertex="1">
          <mxGeometry width="120" height="40" as="geometry" />
        </mxCell>
        <mxCell id="-LVYRruvtGEwxxt-nKAD-134" value="" style="shape=partialRectangle;html=1;whiteSpace=wrap;connectable=0;strokeColor=inherit;overflow=hidden;fillColor=none;top=0;left=0;bottom=0;right=0;pointerEvents=1;" parent="-LVYRruvtGEwxxt-nKAD-133" vertex="1">
          <mxGeometry width="60" height="40" as="geometry">
            <mxRectangle width="60" height="40" as="alternateBounds" />
          </mxGeometry>
        </mxCell>
        <mxCell id="-LVYRruvtGEwxxt-nKAD-135" value="" style="shape=partialRectangle;html=1;whiteSpace=wrap;connectable=0;strokeColor=inherit;overflow=hidden;fillColor=none;top=0;left=0;bottom=0;right=0;pointerEvents=1;" parent="-LVYRruvtGEwxxt-nKAD-133" vertex="1">
          <mxGeometry x="60" width="60" height="40" as="geometry">
            <mxRectangle width="60" height="40" as="alternateBounds" />
          </mxGeometry>
        </mxCell>
        <mxCell id="-LVYRruvtGEwxxt-nKAD-136" value="" style="shape=tableRow;horizontal=0;startSize=0;swimlaneHead=0;swimlaneBody=0;strokeColor=inherit;top=0;left=0;bottom=0;right=0;collapsible=0;dropTarget=0;fillColor=none;points=[[0,0.5],[1,0.5]];portConstraint=eastwest;" parent="-LVYRruvtGEwxxt-nKAD-132" vertex="1">
          <mxGeometry y="40" width="120" height="40" as="geometry" />
        </mxCell>
        <mxCell id="-LVYRruvtGEwxxt-nKAD-137" value="" style="shape=partialRectangle;html=1;whiteSpace=wrap;connectable=0;strokeColor=inherit;overflow=hidden;fillColor=none;top=0;left=0;bottom=0;right=0;pointerEvents=1;" parent="-LVYRruvtGEwxxt-nKAD-136" vertex="1">
          <mxGeometry width="60" height="40" as="geometry">
            <mxRectangle width="60" height="40" as="alternateBounds" />
          </mxGeometry>
        </mxCell>
        <mxCell id="-LVYRruvtGEwxxt-nKAD-138" value="" style="shape=partialRectangle;html=1;whiteSpace=wrap;connectable=0;strokeColor=inherit;overflow=hidden;fillColor=none;top=0;left=0;bottom=0;right=0;pointerEvents=1;" parent="-LVYRruvtGEwxxt-nKAD-136" vertex="1">
          <mxGeometry x="60" width="60" height="40" as="geometry">
            <mxRectangle width="60" height="40" as="alternateBounds" />
          </mxGeometry>
        </mxCell>
        <mxCell id="-LVYRruvtGEwxxt-nKAD-139" value="" style="shape=table;startSize=0;container=1;collapsible=0;childLayout=tableLayout;" parent="1" vertex="1">
          <mxGeometry x="1430" y="-260" width="120" height="60" as="geometry" />
        </mxCell>
        <mxCell id="-LVYRruvtGEwxxt-nKAD-140" value="" style="shape=tableRow;horizontal=0;startSize=0;swimlaneHead=0;swimlaneBody=0;strokeColor=inherit;top=0;left=0;bottom=0;right=0;collapsible=0;dropTarget=0;fillColor=none;points=[[0,0.5],[1,0.5]];portConstraint=eastwest;" parent="-LVYRruvtGEwxxt-nKAD-139" vertex="1">
          <mxGeometry width="120" height="20" as="geometry" />
        </mxCell>
        <mxCell id="-LVYRruvtGEwxxt-nKAD-141" value="" style="shape=partialRectangle;html=1;whiteSpace=wrap;connectable=0;strokeColor=inherit;overflow=hidden;fillColor=none;top=0;left=0;bottom=0;right=0;pointerEvents=1;" parent="-LVYRruvtGEwxxt-nKAD-140" vertex="1">
          <mxGeometry width="100" height="20" as="geometry">
            <mxRectangle width="100" height="20" as="alternateBounds" />
          </mxGeometry>
        </mxCell>
        <mxCell id="-LVYRruvtGEwxxt-nKAD-142" value="" style="shape=partialRectangle;html=1;whiteSpace=wrap;connectable=0;strokeColor=inherit;overflow=hidden;fillColor=none;top=0;left=0;bottom=0;right=0;pointerEvents=1;" parent="-LVYRruvtGEwxxt-nKAD-140" vertex="1">
          <mxGeometry x="100" width="20" height="20" as="geometry">
            <mxRectangle width="20" height="20" as="alternateBounds" />
          </mxGeometry>
        </mxCell>
        <mxCell id="-LVYRruvtGEwxxt-nKAD-143" value="" style="shape=tableRow;horizontal=0;startSize=0;swimlaneHead=0;swimlaneBody=0;strokeColor=inherit;top=0;left=0;bottom=0;right=0;collapsible=0;dropTarget=0;fillColor=none;points=[[0,0.5],[1,0.5]];portConstraint=eastwest;" parent="-LVYRruvtGEwxxt-nKAD-139" vertex="1">
          <mxGeometry y="20" width="120" height="40" as="geometry" />
        </mxCell>
        <mxCell id="-LVYRruvtGEwxxt-nKAD-144" value="" style="shape=partialRectangle;html=1;whiteSpace=wrap;connectable=0;strokeColor=inherit;overflow=hidden;fillColor=none;top=0;left=0;bottom=0;right=0;pointerEvents=1;" parent="-LVYRruvtGEwxxt-nKAD-143" vertex="1">
          <mxGeometry width="100" height="40" as="geometry">
            <mxRectangle width="100" height="40" as="alternateBounds" />
          </mxGeometry>
        </mxCell>
        <mxCell id="-LVYRruvtGEwxxt-nKAD-145" value="" style="shape=partialRectangle;html=1;whiteSpace=wrap;connectable=0;strokeColor=inherit;overflow=hidden;fillColor=none;top=0;left=0;bottom=0;right=0;pointerEvents=1;" parent="-LVYRruvtGEwxxt-nKAD-143" vertex="1">
          <mxGeometry x="100" width="20" height="40" as="geometry">
            <mxRectangle width="20" height="40" as="alternateBounds" />
          </mxGeometry>
        </mxCell>
        <mxCell id="A1dWP4yO2sNmT6Jb_1RV-1" value="" style="endArrow=none;html=1;rounded=0;" parent="1" edge="1">
          <mxGeometry width="50" height="50" relative="1" as="geometry">
            <mxPoint x="-260" y="570" as="sourcePoint" />
            <mxPoint x="-160" y="570" as="targetPoint" />
          </mxGeometry>
        </mxCell>
        <mxCell id="A1dWP4yO2sNmT6Jb_1RV-2" value="" style="endArrow=none;html=1;rounded=0;" parent="1" edge="1">
          <mxGeometry width="50" height="50" relative="1" as="geometry">
            <mxPoint x="-160" y="800" as="sourcePoint" />
            <mxPoint x="-160" y="340" as="targetPoint" />
          </mxGeometry>
        </mxCell>
        <mxCell id="A1dWP4yO2sNmT6Jb_1RV-37" value="" style="endArrow=classic;html=1;rounded=0;exitX=0.475;exitY=0.972;exitDx=0;exitDy=0;exitPerimeter=0;" parent="1" edge="1">
          <mxGeometry width="50" height="50" relative="1" as="geometry">
            <mxPoint x="-151" y="565.1199999999999" as="sourcePoint" />
            <mxPoint x="350" y="565" as="targetPoint" />
          </mxGeometry>
        </mxCell>
        <mxCell id="A1dWP4yO2sNmT6Jb_1RV-38" value="" style="endArrow=classic;html=1;rounded=0;" parent="1" edge="1">
          <mxGeometry width="50" height="50" relative="1" as="geometry">
            <mxPoint x="360" y="576" as="sourcePoint" />
            <mxPoint x="-150" y="578" as="targetPoint" />
          </mxGeometry>
        </mxCell>
        <mxCell id="A1dWP4yO2sNmT6Jb_1RV-39" value="Request" style="text;html=1;strokeColor=none;fillColor=none;align=center;verticalAlign=middle;whiteSpace=wrap;rounded=0;" parent="1" vertex="1">
          <mxGeometry x="80" y="535" width="60" height="30" as="geometry" />
        </mxCell>
        <mxCell id="A1dWP4yO2sNmT6Jb_1RV-40" value="Response" style="text;html=1;strokeColor=none;fillColor=none;align=center;verticalAlign=middle;whiteSpace=wrap;rounded=0;" parent="1" vertex="1">
          <mxGeometry x="80" y="575" width="60" height="30" as="geometry" />
        </mxCell>
        <mxCell id="A1dWP4yO2sNmT6Jb_1RV-41" value="" style="ellipse;whiteSpace=wrap;html=1;aspect=fixed;" parent="1" vertex="1">
          <mxGeometry x="352" y="510" width="110" height="110" as="geometry" />
        </mxCell>
        <mxCell id="A1dWP4yO2sNmT6Jb_1RV-42" value="" style="endArrow=none;html=1;rounded=0;entryX=1;entryY=0.5;entryDx=0;entryDy=0;" parent="1" target="A1dWP4yO2sNmT6Jb_1RV-41" edge="1">
          <mxGeometry width="50" height="50" relative="1" as="geometry">
            <mxPoint x="352" y="565" as="sourcePoint" />
            <mxPoint x="402" y="515" as="targetPoint" />
          </mxGeometry>
        </mxCell>
        <mxCell id="A1dWP4yO2sNmT6Jb_1RV-43" value="2.4.2" style="text;html=1;strokeColor=none;fillColor=none;align=center;verticalAlign=middle;whiteSpace=wrap;rounded=0;" parent="1" vertex="1">
          <mxGeometry x="377" y="525" width="60" height="30" as="geometry" />
        </mxCell>
        <mxCell id="A1dWP4yO2sNmT6Jb_1RV-44" value="Approve,Reject" style="text;html=1;strokeColor=none;fillColor=none;align=center;verticalAlign=middle;whiteSpace=wrap;rounded=0;" parent="1" vertex="1">
          <mxGeometry x="364.5" y="575" width="85" height="30" as="geometry" />
        </mxCell>
        <mxCell id="A1dWP4yO2sNmT6Jb_1RV-48" value="" style="endArrow=classic;html=1;rounded=0;" parent="1" edge="1">
          <mxGeometry width="50" height="50" relative="1" as="geometry">
            <mxPoint x="468" y="555" as="sourcePoint" />
            <mxPoint x="769" y="555" as="targetPoint" />
          </mxGeometry>
        </mxCell>
        <mxCell id="A1dWP4yO2sNmT6Jb_1RV-49" value="" style="endArrow=classic;html=1;rounded=0;entryX=0.945;entryY=0.236;entryDx=0;entryDy=0;entryPerimeter=0;" parent="1" edge="1">
          <mxGeometry width="50" height="50" relative="1" as="geometry">
            <mxPoint x="769" y="566" as="sourcePoint" />
            <mxPoint x="463" y="566" as="targetPoint" />
          </mxGeometry>
        </mxCell>
        <mxCell id="A1dWP4yO2sNmT6Jb_1RV-61" value="Request" style="text;html=1;strokeColor=none;fillColor=none;align=center;verticalAlign=middle;whiteSpace=wrap;rounded=0;" parent="1" vertex="1">
          <mxGeometry x="490" y="525" width="280" height="30" as="geometry" />
        </mxCell>
        <mxCell id="A1dWP4yO2sNmT6Jb_1RV-62" value="Approve/Reject Customer booking" style="text;html=1;strokeColor=none;fillColor=none;align=center;verticalAlign=middle;whiteSpace=wrap;rounded=0;" parent="1" vertex="1">
          <mxGeometry x="542" y="561" width="198" height="30" as="geometry" />
        </mxCell>
        <mxCell id="A1dWP4yO2sNmT6Jb_1RV-69" value="" style="html=1;dashed=0;whiteSpace=wrap;shape=mxgraph.dfd.dataStoreID;align=left;spacingLeft=3;points=[[0,0],[0.5,0],[1,0],[0,0.5],[1,0.5],[0,1],[0.5,1],[1,1]];" parent="1" vertex="1">
          <mxGeometry x="770" y="545" width="190" height="40" as="geometry" />
        </mxCell>
        <mxCell id="A1dWP4yO2sNmT6Jb_1RV-70" value="contractot_booking" style="text;html=1;strokeColor=none;fillColor=none;align=center;verticalAlign=middle;whiteSpace=wrap;rounded=0;" parent="1" vertex="1">
          <mxGeometry x="850" y="550" width="60" height="30" as="geometry" />
        </mxCell>
        <mxCell id="A1dWP4yO2sNmT6Jb_1RV-71" value="contractor_booking" style="text;html=1;strokeColor=none;fillColor=none;align=center;verticalAlign=middle;whiteSpace=wrap;rounded=0;" parent="1" vertex="1">
          <mxGeometry x="876" y="825" width="60" height="30" as="geometry" />
        </mxCell>
        <mxCell id="A1dWP4yO2sNmT6Jb_1RV-74" value="" style="line;strokeWidth=1;rotatable=0;dashed=0;labelPosition=right;align=left;verticalAlign=middle;spacingTop=0;spacingLeft=6;points=[];portConstraint=eastwest;" parent="1" vertex="1">
          <mxGeometry x="459" y="336" width="20" height="10" as="geometry" />
        </mxCell>
        <mxCell id="A1dWP4yO2sNmT6Jb_1RV-75" value="" style="endArrow=none;html=1;rounded=0;" parent="1" edge="1">
          <mxGeometry relative="1" as="geometry">
            <mxPoint x="477" y="404" as="sourcePoint" />
            <mxPoint x="477" y="284" as="targetPoint" />
          </mxGeometry>
        </mxCell>
      </root>
    </mxGraphModel>
  </diagram>
</mxfile>
